<?xml version="1.0" standalone="no"?>
<!DOCTYPE svg PUBLIC "-//W3C//DTD SVG 20010904//EN"
 "http://www.w3.org/TR/2001/REC-SVG-20010904/DTD/svg10.dtd">
<svg version="1.0" xmlns="http://www.w3.org/2000/svg"
 width="710.000000pt" height="473.000000pt" viewBox="0 0 710.000000 473.000000"
 preserveAspectRatio="xMidYMid meet">

<g transform="translate(0.000000,473.000000) scale(0.100000,-0.100000)"
fill="#000000" stroke="none">
<path d="M3165 3639 c-22 -5 -49 -13 -60 -19 -11 -5 -56 -17 -100 -26 -86 -18
-129 -34 -107 -42 7 -2 52 8 100 23 48 14 117 35 153 45 76 23 118 25 142 8 9
-7 26 -40 37 -72 24 -71 24 -66 3 -66 -17 0 -43 40 -43 66 0 17 -28 44 -47 44
-11 0 -10 -4 6 -17 13 -11 29 -47 43 -96 l21 -79 29 29 29 29 -15 56 c-32 125
-65 145 -191 117z"/>
<path d="M3095 3569 c-44 -10 -102 -25 -130 -33 -27 -8 -62 -17 -77 -20 -16
-4 -28 -11 -28 -17 0 -13 1 -13 155 31 61 17 133 37 160 44 76 21 12 17 -80
-5z"/>
<path d="M2833 3550 c-13 -5 -23 -16 -23 -25 0 -8 -7 -15 -15 -15 -8 0 -19 -9
-25 -20 -8 -15 -8 -20 2 -20 28 0 58 13 58 25 0 6 9 20 20 30 34 31 26 42 -17
25z"/>
<path d="M3905 3540 c-359 -98 -496 -138 -520 -154 -46 -30 -47 -73 -9 -209
19 -67 37 -135 40 -152 3 -16 9 -37 14 -45 4 -8 11 -32 14 -54 4 -21 12 -50
18 -65 6 -14 12 -33 13 -41 1 -8 14 -60 30 -114 19 -67 25 -104 19 -114 -6 -8
-100 -44 -209 -79 -110 -35 -231 -75 -270 -89 -89 -31 -170 -54 -196 -54 -26
0 -35 26 -49 145 -7 55 -19 136 -27 180 -20 109 -49 292 -73 460 -11 77 -25
156 -30 175 -6 19 -10 49 -11 65 0 28 -1 29 -11 9 -5 -12 -21 -28 -35 -35 -25
-13 -25 -15 -18 -101 6 -76 4 -88 -9 -88 -11 0 -16 -9 -16 -27 0 -58 94 -724
121 -860 12 -60 47 -93 98 -93 42 0 693 211 720 233 8 7 34 39 58 72 31 42 43
69 43 93 0 36 -25 142 -40 170 -4 10 -14 44 -21 77 -7 33 -16 65 -20 70 -3 6
-10 26 -13 45 -4 19 -14 58 -21 85 -8 28 -28 97 -44 154 -16 57 -27 109 -25
116 5 13 149 65 178 65 22 0 170 50 176 60 3 4 29 9 58 12 65 6 71 12 41 37
-13 11 -21 22 -17 26 4 4 19 -5 33 -19 19 -19 32 -25 51 -20 28 7 28 8 12 34
-11 17 -10 22 2 30 12 8 11 10 -5 9 -11 -1 -33 -5 -50 -9z"/>
<path d="M4052 3510 c53 -51 42 -64 -13 -16 -76 64 -76 32 0 -47 39 -40 44
-50 34 -66 -12 -19 -4 -41 203 -546 25 -60 54 -137 66 -170 11 -33 23 -64 28
-70 4 -5 17 -41 29 -79 20 -65 20 -69 4 -82 -10 -7 -25 -14 -34 -14 -9 0 -34
-7 -55 -16 -21 -9 -45 -18 -53 -19 -16 -4 -463 -158 -492 -169 -24 -10 -46 22
-64 94 -9 36 -23 86 -31 112 -14 43 -17 46 -31 33 -8 -8 -23 -20 -34 -25 -10
-6 -19 -21 -19 -35 0 -13 -10 -31 -25 -42 l-25 -18 31 -110 c25 -92 36 -115
65 -142 37 -36 59 -40 88 -18 14 11 23 12 33 4 17 -15 107 14 146 47 32 27 59
35 102 32 25 -3 30 0 29 20 0 12 3 22 8 22 4 0 8 -7 8 -15 0 -16 4 -18 37 -9
17 5 21 12 19 33 -2 14 -1 19 1 11 7 -21 22 -28 44 -23 23 6 24 11 2 36 -17
19 -17 20 4 8 12 -6 25 -15 28 -21 3 -6 15 -5 30 2 25 11 34 28 15 28 -5 0
-10 5 -10 12 0 6 7 4 18 -5 18 -17 42 -23 42 -11 0 3 -10 20 -22 37 l-21 32
31 -29 c25 -24 36 -27 64 -22 53 10 98 42 104 76 4 16 10 28 14 25 4 -2 15 4
25 15 10 11 14 20 9 20 -5 0 -2 4 6 10 19 12 16 91 -6 134 -8 17 -22 51 -31
76 -8 25 -26 68 -40 95 -13 28 -55 127 -93 220 -139 343 -171 421 -197 475
-15 30 -27 64 -28 74 -1 11 -16 32 -34 48 -48 43 -55 33 -9 -12z m328 -1205
c-7 -8 -22 -14 -34 -14 -20 1 -20 2 -1 6 11 3 24 9 30 14 15 14 19 10 5 -6z"/>
<path d="M2706 3515 c-65 -18 -95 -41 -113 -88 -21 -51 -6 -66 30 -33 20 18
27 35 27 61 0 19 5 35 11 35 7 0 10 -12 7 -30 -4 -27 -2 -30 16 -24 61 19 67
24 61 44 -4 12 -1 27 5 35 7 8 11 15 9 14 -2 0 -26 -7 -53 -14z"/>
<path d="M3120 3480 c-36 -11 -94 -27 -130 -36 -136 -34 -234 -65 -241 -75 -3
-6 -2 -32 3 -57 21 -114 71 -408 89 -520 17 -114 31 -162 46 -162 3 0 48 14
100 30 51 17 97 30 102 30 5 0 26 7 46 16 30 12 35 18 24 25 -9 6 -3 7 19 3
19 -4 32 -2 32 4 0 5 9 8 19 5 10 -3 30 1 42 8 27 15 31 16 60 18 15 1 19 6
15 17 -6 14 -4 15 10 4 13 -12 17 -11 25 1 5 8 7 23 3 34 -13 46 -25 93 -38
150 -33 148 -128 501 -138 512 -13 16 -8 16 -88 -7z m84 -237 c46 -21 63 -62
46 -104 -15 -36 -75 -83 -128 -100 -20 -6 -63 -31 -95 -55 -31 -24 -60 -44
-63 -44 -3 0 -3 15 0 34 6 34 6 34 -44 51 -55 18 -80 45 -80 87 0 39 64 101
131 126 69 27 183 29 233 5z m-67 -499 c-3 -3 -12 -4 -19 -1 -8 3 -5 6 6 6 11
1 17 -2 13 -5z"/>
<path d="M4044 3417 c3 -10 6 -23 6 -28 0 -5 5 -9 10 -9 14 0 12 13 -6 36 -14
17 -15 17 -10 1z"/>
<path d="M3100 2631 c-14 -26 -13 -74 2 -89 18 -18 63 -14 81 6 20 22 22 73 5
90 -20 20 -76 15 -88 -7z"/>
<path d="M3994 2502 c-52 -34 -25 -122 37 -122 29 0 59 31 59 61 0 44 -62 84
-96 61z"/>
<path d="M3950 2130 c-13 -9 -13 -10 0 -10 8 0 22 5 30 10 13 9 13 10 0 10 -8
0 -22 -5 -30 -10z"/>
<path d="M750 1756 c0 -12 5 -27 12 -34 16 -16 17 -163 1 -169 -7 -3 -13 -16
-13 -29 0 -24 0 -24 120 -24 l120 0 0 45 c0 45 0 45 -35 45 -28 0 -35 -4 -35
-20 0 -16 -7 -20 -30 -20 -27 0 -30 3 -30 30 0 26 4 30 28 30 36 0 55 13 50
36 -2 14 -13 20 -41 22 -31 3 -37 7 -37 26 0 31 50 44 57 15 4 -14 14 -19 39
-19 34 0 34 1 34 45 l0 45 -120 -1 c-116 -1 -120 -2 -120 -23z"/>
<path d="M1015 1759 c-4 -13 -1 -27 9 -38 22 -24 23 -153 1 -171 -8 -7 -15
-21 -15 -31 0 -18 9 -19 115 -19 l115 0 0 50 0 50 -35 0 c-31 0 -35 -3 -35
-26 0 -21 -4 -25 -22 -22 -21 3 -23 9 -26 82 -2 46 2 84 8 90 5 5 10 20 10 33
0 21 -4 23 -59 23 -52 0 -61 -3 -66 -21z"/>
<path d="M1328 1773 c-1 -4 -2 -26 -3 -48 -2 -55 -32 -158 -50 -171 -8 -6 -15
-21 -15 -33 0 -19 5 -21 60 -21 57 0 60 1 60 24 0 13 -5 26 -12 28 -6 2 -8 10
-4 16 12 20 86 12 86 -9 0 -5 -9 -9 -20 -9 -15 0 -20 -7 -20 -25 0 -25 1 -25
80 -25 78 0 80 1 80 24 0 13 -5 26 -12 28 -7 3 -28 54 -48 114 l-35 109 -73 3
c-39 2 -73 -1 -74 -5z m86 -105 c9 -35 8 -38 -15 -38 -15 0 -19 4 -15 16 3 9
6 22 6 30 0 22 17 16 24 -8z"/>
<path d="M1593 1764 c-3 -9 -1 -25 5 -35 15 -23 16 -175 2 -184 -5 -3 -10 -15
-10 -26 0 -16 7 -19 55 -19 52 0 55 1 55 25 0 14 -4 25 -10 25 -5 0 -10 24 -9
53 0 59 8 50 34 -45 l16 -58 43 0 44 0 17 68 c23 87 35 99 35 34 0 -29 -4 -52
-10 -52 -5 0 -10 -11 -10 -25 0 -24 2 -25 65 -25 59 0 65 2 65 20 0 11 -7 23
-15 26 -22 9 -22 169 1 178 9 3 14 15 12 28 -3 21 -9 23 -80 26 l-77 3 -7 -28
c-16 -71 -26 -105 -30 -101 -2 2 -12 31 -22 64 l-18 59 -72 3 c-60 2 -73 0
-79 -14z"/>
<path d="M2000 1751 c0 -16 5 -33 10 -36 6 -3 10 -39 10 -80 0 -41 -4 -77 -10
-80 -5 -3 -10 -17 -10 -31 0 -23 3 -24 60 -24 57 0 60 1 60 25 0 14 -4 25 -10
25 -5 0 -10 14 -10 30 0 20 5 30 15 30 17 0 21 -7 29 -61 9 -54 75 -78 112
-42 13 13 19 14 22 5 2 -8 26 -12 68 -12 62 0 64 1 64 25 0 16 -6 25 -16 25
-9 0 -14 6 -11 13 2 7 20 12 42 12 22 0 40 -5 43 -12 2 -7 -3 -13 -12 -13 -10
0 -16 -9 -16 -25 0 -25 1 -25 80 -25 79 0 80 0 80 25 0 15 -6 25 -14 25 -10 0
-27 38 -51 114 l-35 115 -76 0 -76 0 5 -37 c3 -24 -5 -65 -21 -114 -25 -76
-43 -96 -57 -60 -6 16 -7 16 -19 0 -15 -20 -26 -14 -26 14 0 10 -9 27 -20 38
-19 19 -19 20 0 30 28 15 27 80 -1 106 -16 15 -40 19 -115 22 l-94 4 0 -31z
m150 -56 c0 -24 -31 -51 -44 -38 -3 3 -6 19 -6 35 0 23 4 28 25 28 20 0 25 -5
25 -25z m295 -42 c5 -19 2 -23 -14 -23 -21 0 -26 15 -15 45 8 19 19 10 29 -22z"/>
<path d="M4383 1760 c-18 -10 -39 -33 -48 -49 -22 -43 -19 -119 5 -159 49 -80
181 -80 230 0 25 42 27 128 3 169 -34 57 -129 77 -190 39z m91 -43 c37 -27 29
-149 -10 -164 -45 -17 -74 104 -38 155 18 26 24 27 48 9z"/>
<path d="M5265 1773 c-42 -9 -67 -29 -86 -67 -53 -109 21 -228 133 -213 100
13 151 104 113 202 -24 65 -85 95 -160 78z m59 -65 c34 -48 14 -158 -28 -158
-50 0 -63 141 -15 171 21 13 26 11 43 -13z"/>
<path d="M2710 1751 c0 -10 7 -21 15 -25 23 -8 21 -164 -2 -181 -9 -7 -14 -19
-10 -29 5 -14 24 -16 122 -16 l116 0 -3 43 c-3 37 -6 42 -29 45 -20 2 -28 -2
-32 -18 -4 -17 -12 -21 -39 -18 -29 3 -33 6 -33 33 0 28 3 30 38 33 33 3 38 6
35 25 -2 16 -11 23 -33 25 -38 4 -49 15 -40 41 9 29 61 29 70 1 4 -14 15 -20
36 -20 27 0 29 2 29 40 l0 40 -120 0 c-111 0 -120 -1 -120 -19z"/>
<path d="M2970 1750 c0 -11 5 -20 10 -20 6 0 10 -36 10 -89 0 -50 -4 -93 -10
-96 -5 -3 -10 -15 -10 -26 0 -18 8 -19 111 -19 l110 0 -3 48 c-3 43 -5 47 -30
50 -24 3 -28 0 -28 -22 0 -22 -4 -26 -30 -26 l-30 0 0 84 c0 47 5 88 10 91 6
3 10 15 10 26 0 17 -7 19 -60 19 -53 0 -60 -2 -60 -20z"/>
<path d="M3210 1751 c0 -10 7 -21 15 -25 23 -8 21 -164 -2 -181 -9 -7 -14 -19
-10 -28 5 -13 26 -16 122 -16 l116 0 -3 42 c-3 38 -6 42 -30 45 -23 3 -28 -1
-28 -18 0 -18 -5 -21 -37 -18 -35 3 -38 6 -38 33 0 28 3 30 38 33 33 3 38 6
35 25 -2 16 -11 23 -33 25 -38 4 -49 15 -40 41 9 29 65 30 72 0 4 -15 12 -19
31 -17 22 3 27 8 29 41 l2 37 -120 0 c-110 0 -119 -1 -119 -19z"/>
<path d="M3518 1747 c-14 -12 -31 -37 -37 -56 -42 -129 54 -232 173 -187 57
22 68 35 50 60 -13 19 -15 19 -53 1 -49 -22 -68 -15 -86 29 -20 47 -10 100 22
117 23 12 27 11 49 -14 14 -16 33 -27 49 -27 23 0 25 3 25 49 l0 49 -83 0
c-71 1 -86 -2 -109 -21z"/>
<path d="M3747 1763 c-4 -3 -7 -24 -7 -45 0 -34 3 -38 24 -38 18 0 25 6 28 23
2 12 10 22 18 22 12 0 16 -18 18 -87 2 -74 0 -88 -13 -88 -9 0 -15 -9 -15 -25
0 -24 2 -25 70 -25 68 0 70 1 70 25 0 16 -6 25 -15 25 -13 0 -15 14 -13 88 2
69 6 87 18 87 8 0 16 -10 18 -22 3 -17 10 -23 28 -23 22 0 24 4 24 45 l0 45
-123 0 c-68 0 -127 -3 -130 -7z"/>
<path d="M4030 1751 c0 -11 5 -23 10 -26 6 -3 10 -44 10 -91 0 -49 -4 -84 -10
-84 -5 0 -10 -11 -10 -25 0 -24 3 -25 60 -25 57 0 60 1 60 24 0 13 -7 27 -16
30 -23 9 -14 51 11 51 15 0 21 -9 26 -37 7 -45 22 -64 55 -72 35 -9 74 17 74
49 0 14 -4 25 -10 25 -5 0 -10 -4 -10 -10 0 -22 -20 -8 -26 18 -4 15 -14 35
-22 45 -14 16 -14 19 6 33 29 20 29 67 0 94 -19 17 -35 20 -115 20 -85 0 -93
-2 -93 -19z m148 -33 c16 -16 15 -33 -4 -52 -21 -22 -41 -20 -49 4 -14 46 22
79 53 48z"/>
<path d="M4760 1754 c0 -8 7 -22 15 -30 11 -11 15 -37 15 -88 0 -53 -4 -77
-15 -86 -8 -7 -15 -20 -15 -30 0 -13 10 -17 50 -19 44 -1 50 1 50 19 0 11 -4
20 -10 20 -6 0 -10 27 -10 60 0 33 3 60 8 60 11 0 30 -48 43 -108 l11 -53 41
3 c33 3 42 8 45 23 5 37 46 165 51 165 10 0 2 -129 -9 -149 -18 -34 -12 -38
50 -40 33 0 60 2 60 6 0 5 -7 26 -14 48 -14 39 -11 175 3 175 4 0 7 9 8 20 2
18 -4 20 -73 20 -47 0 -74 -4 -74 -11 0 -25 -32 -119 -39 -114 -5 2 -16 32
-25 65 l-17 60 -75 0 c-61 0 -74 -3 -74 -16z"/>
<path d="M5460 1751 c0 -11 5 -23 10 -26 17 -11 12 -164 -5 -182 -30 -29 -11
-38 89 -41 112 -3 140 8 151 59 5 24 2 38 -15 61 -16 22 -19 33 -11 41 17 17
13 72 -7 90 -15 13 -39 17 -115 17 -89 0 -97 -2 -97 -19z m140 -36 c6 -8 10
-22 8 -32 -5 -25 -51 -25 -56 0 -8 42 23 63 48 32z m15 -130 c0 -27 -3 -30
-30 -30 -21 0 -31 5 -33 18 -6 33 6 49 35 45 24 -3 28 -8 28 -33z"/>
<path d="M5720 1751 c0 -10 7 -21 15 -25 23 -8 21 -164 -2 -181 -9 -7 -14 -19
-10 -29 5 -12 20 -16 67 -16 54 0 60 2 60 20 0 11 -7 23 -15 26 -12 5 -15 25
-15 90 0 66 3 86 15 90 8 4 15 15 15 25 0 17 -8 19 -65 19 -57 0 -65 -2 -65
-19z"/>
<path d="M5870 1750 c0 -11 5 -20 10 -20 6 0 10 -36 10 -89 0 -50 -4 -93 -10
-96 -5 -3 -10 -15 -10 -26 0 -18 8 -19 111 -19 l110 0 -3 48 c-3 43 -5 47 -30
50 -24 3 -28 0 -28 -22 0 -22 -4 -26 -30 -26 l-30 0 0 84 c0 47 5 88 10 91 6
3 10 15 10 26 0 17 -7 19 -60 19 -53 0 -60 -2 -60 -20z"/>
<path d="M6110 1751 c0 -10 7 -21 15 -25 12 -4 15 -24 15 -90 0 -65 -3 -85
-15 -90 -8 -3 -15 -15 -15 -26 0 -20 5 -21 118 -18 l117 3 3 34 c2 18 -1 38
-6 43 -13 13 -52 0 -52 -18 0 -10 -12 -14 -41 -14 -39 0 -40 1 -37 33 3 28 7
33 38 37 23 3 36 11 38 23 3 17 -2 20 -48 21 -21 1 -25 6 -25 31 0 26 4 30 32
33 24 2 33 -1 38 -17 4 -15 15 -21 36 -21 27 0 29 2 29 40 l0 40 -120 0 c-111
0 -120 -1 -120 -19z"/>
<path d="M4627 1614 c-4 -4 -7 -16 -7 -26 0 -17 7 -19 53 -16 44 3 52 6 52 23
0 17 -8 20 -45 23 -25 2 -49 0 -53 -4z"/>
<path d="M3419 1247 c0 -1 -1 -32 -2 -69 l-3 -68 63 0 c74 0 88 14 47 47 -24
19 -25 23 -9 21 11 -2 22 1 25 6 3 5 -10 10 -28 12 -42 5 -55 -21 -23 -46 l23
-17 -31 0 c-31 0 -31 1 -31 53 0 37 -4 54 -15 58 -8 3 -15 4 -16 3z"/>
<path d="M3810 1224 c-6 -14 -10 -45 -10 -70 0 -39 2 -44 23 -44 22 0 23 3 21
60 -2 33 1 60 7 60 5 0 9 5 9 10 0 22 -41 9 -50 -16z"/>
<path d="M5706 1243 c-3 -4 -6 -35 -6 -70 0 -59 1 -63 23 -63 21 0 23 4 19 38
-5 42 14 35 20 -8 2 -14 11 -26 21 -28 13 -3 17 3 17 30 0 44 -13 62 -39 55
-17 -4 -21 -1 -21 18 0 22 -22 40 -34 28z"/>
<path d="M2380 1224 c0 -17 22 -14 28 4 2 7 -3 12 -12 12 -9 0 -16 -7 -16 -16z"/>
<path d="M4410 1224 c0 -9 5 -14 12 -12 18 6 21 28 4 28 -9 0 -16 -7 -16 -16z"/>
<path d="M5045 1226 c-24 -17 -15 -48 18 -64 29 -14 38 -39 10 -27 -31 12 -48
11 -48 -5 0 -10 13 -16 43 -18 75 -5 98 36 37 65 -35 17 -46 33 -22 33 7 0 18
-5 25 -12 9 -9 15 -9 24 0 15 15 2 28 -38 35 -19 4 -39 1 -49 -7z"/>
<path d="M852 1223 c2 -5 14 -32 28 -60 14 -32 30 -53 40 -53 10 0 25 21 40
53 13 28 25 55 28 60 2 4 -7 7 -21 7 -20 0 -24 -5 -24 -26 0 -38 -20 -53 -31
-23 -5 13 -7 30 -5 37 4 8 -5 12 -27 12 -17 0 -30 -3 -28 -7z"/>
<path d="M1645 1171 c0 -54 2 -58 22 -58 16 0 23 6 26 26 l3 26 12 -27 c7 -18
19 -28 32 -28 24 0 25 8 3 32 -13 15 -15 23 -6 37 19 30 -2 51 -50 51 l-42 0
0 -59z m65 18 c0 -18 -2 -19 -15 -9 -8 7 -15 16 -15 21 0 5 7 9 15 9 9 0 15
-9 15 -21z"/>
<path d="M2715 1170 c0 -50 3 -60 17 -60 14 0 16 7 11 35 -3 19 -3 35 1 35 3
0 12 -16 20 -35 16 -37 46 -48 46 -17 0 10 7 27 16 38 15 18 15 17 10 -18 -4
-35 -3 -38 19 -38 22 0 24 3 19 33 -3 17 -7 37 -9 44 -2 7 0 15 5 18 21 13 9
25 -24 25 -29 0 -35 -4 -41 -27 l-7 -28 -14 28 c-11 19 -22 27 -42 27 -26 0
-27 -1 -27 -60z"/>
<path d="M3260 1220 c0 -5 5 -10 10 -10 6 0 10 5 10 10 0 6 -4 10 -10 10 -5 0
-10 -4 -10 -10z"/>
<path d="M3615 1170 c0 -53 2 -60 20 -60 18 0 20 7 20 60 0 53 -2 60 -20 60
-18 0 -20 -7 -20 -60z"/>
<path d="M4882 1218 c-13 -17 -9 -61 6 -66 15 -5 16 -32 2 -32 -6 0 -13 7 -16
15 -4 8 -10 13 -15 10 -4 -3 -6 -12 -2 -20 3 -10 19 -15 47 -15 39 0 41 2 43
31 2 26 0 29 -13 19 -20 -18 -31 -3 -16 21 20 32 -13 65 -36 37z"/>
<path d="M1226 1211 c-3 -5 -3 -30 0 -55 5 -36 11 -46 25 -46 17 0 17 3 7 20
-10 16 -10 24 0 40 10 17 10 23 -2 35 -17 17 -23 18 -30 6z"/>
<path d="M1536 1211 c-3 -5 -3 -30 0 -55 5 -36 11 -46 25 -46 11 0 19 5 19 10
0 6 -4 10 -10 10 -14 0 -13 33 2 48 8 8 8 15 -2 27 -14 17 -26 19 -34 6z"/>
<path d="M2307 1206 c-3 -7 -3 -32 0 -55 4 -29 10 -41 22 -41 13 0 16 9 15 48
-1 26 -3 50 -3 55 -2 13 -29 8 -34 -7z"/>
<path d="M3021 1211 c-21 -13 -3 -94 22 -99 15 -3 16 0 6 22 -9 20 -9 29 1 41
11 13 11 18 -1 30 -9 9 -19 11 -28 6z"/>
<path d="M4342 1208 c-15 -19 0 -92 19 -96 12 -2 15 4 11 29 -3 19 0 34 8 39
11 7 10 11 -3 24 -19 19 -22 20 -35 4z"/>
<path d="M5522 1208 c-14 -18 0 -92 18 -96 12 -2 15 7 14 45 -1 26 -3 51 -3
56 -2 11 -17 8 -29 -5z"/>
<path d="M1011 1186 c-7 -8 -11 -27 -9 -43 2 -23 8 -29 36 -31 18 -2 32 1 32
7 0 6 -9 11 -20 11 -11 0 -20 5 -20 10 0 6 14 10 30 10 34 0 38 10 12 33 -23
21 -46 22 -61 3z m39 -16 c0 -5 -4 -10 -10 -10 -5 0 -10 5 -10 10 0 6 5 10 10
10 6 0 10 -4 10 -10z"/>
<path d="M1103 1155 c0 -40 3 -45 23 -45 20 0 22 4 17 35 -3 22 -2 35 5 35 6
0 12 -15 14 -32 2 -22 9 -34 21 -36 13 -3 17 4 17 31 0 42 -13 54 -61 55 l-36
1 0 -44z"/>
<path d="M1292 1188 c-7 -7 -12 -21 -12 -33 0 -12 5 -26 12 -33 14 -14 68 -16
68 -2 0 6 -9 10 -20 10 -11 0 -20 5 -20 10 0 6 11 10 25 10 14 0 25 6 25 13 0
19 -21 37 -45 37 -12 0 -26 -5 -33 -12z m48 -18 c0 -5 -4 -10 -10 -10 -5 0
-10 5 -10 10 0 6 5 10 10 10 6 0 10 -4 10 -10z"/>
<path d="M1442 1188 c-13 -13 -16 -47 -4 -63 10 -15 72 -19 72 -5 0 8 -9 10
-25 6 -18 -5 -25 -2 -25 9 0 9 9 15 26 15 21 0 25 4 22 23 -3 25 -45 36 -66
15z m43 -18 c3 -5 -1 -10 -9 -10 -9 0 -16 5 -16 10 0 6 4 10 9 10 6 0 13 -4
16 -10z"/>
<path d="M1793 1188 c-18 -24 -23 -51 -12 -64 14 -17 79 -19 79 -3 0 7 -10 9
-25 5 -18 -5 -25 -2 -25 9 0 9 9 15 25 15 17 0 25 6 25 17 0 13 -3 14 -12 5
-15 -15 -38 -16 -38 -2 0 6 7 10 15 10 8 0 15 5 15 10 0 14 -36 12 -47 -2z"/>
<path d="M1885 1135 c0 -60 2 -65 20 -63 13 2 19 9 17 21 -2 12 4 17 21 17 44
0 62 42 29 71 -9 8 -33 16 -52 17 l-35 2 0 -65z m65 20 c0 -16 -6 -25 -15 -25
-15 0 -21 31 -8 43 13 14 23 6 23 -18z"/>
<path d="M2010 1190 c0 -5 9 -10 20 -10 27 0 25 -18 -2 -22 -15 -2 -23 -10
-23 -23 0 -16 8 -21 43 -23 42 -3 42 -3 42 30 0 19 -5 39 -12 46 -14 14 -68
16 -68 2z m40 -50 c0 -5 -4 -10 -10 -10 -5 0 -10 5 -10 10 0 6 5 10 10 10 6 0
10 -4 10 -10z"/>
<path d="M2115 1155 c0 -36 3 -45 18 -45 12 0 17 8 17 30 0 17 5 30 10 30 6 0
10 7 10 15 0 10 -10 15 -27 15 -26 0 -28 -3 -28 -45z"/>
<path d="M2200 1191 c0 -5 10 -11 23 -14 21 -3 21 -4 -6 -15 -44 -18 -32 -46
21 -50 39 -3 42 -2 42 23 0 43 -17 65 -50 65 -17 0 -30 -4 -30 -9z m40 -51 c0
-5 -4 -10 -10 -10 -5 0 -10 5 -10 10 0 6 5 10 10 10 6 0 10 -4 10 -10z"/>
<path d="M2375 1155 c0 -37 3 -45 18 -45 15 0 18 7 15 42 -2 28 -8 44 -18 46
-12 2 -15 -8 -15 -43z"/>
<path d="M2454 1192 c-35 -24 -18 -82 24 -82 50 0 69 41 34 73 -20 18 -40 21
-58 9z m40 -29 c8 -21 -10 -41 -24 -27 -11 11 -3 44 10 44 4 0 11 -8 14 -17z"/>
<path d="M2545 1154 c0 -38 3 -44 21 -44 18 0 22 6 20 28 -2 39 18 43 22 5 2
-25 8 -33 22 -33 16 0 19 5 14 33 -9 54 -11 55 -56 55 l-43 0 0 -44z"/>
<path d="M2900 1191 c0 -5 12 -11 28 -13 24 -4 25 -5 7 -13 -48 -20 -55 -55
-12 -55 16 0 18 3 9 12 -16 16 -15 28 3 28 8 0 15 -9 15 -20 0 -13 7 -20 20
-20 17 0 19 4 14 28 -12 49 -23 62 -54 62 -17 0 -30 -4 -30 -9z"/>
<path d="M3084 1186 c-3 -8 -4 -27 -2 -43 2 -24 8 -28 36 -31 18 -2 32 1 32 8
0 6 -10 8 -26 4 -20 -5 -25 -3 -22 7 2 8 17 15 31 17 32 4 34 13 9 35 -23 21
-51 22 -58 3z m46 -16 c0 -5 -4 -10 -10 -10 -5 0 -10 5 -10 10 0 6 5 10 10 10
6 0 10 -4 10 -10z"/>
<path d="M3182 1153 c1 -51 18 -53 30 -5 5 18 13 32 18 32 6 0 10 4 10 8 0 5
-13 9 -30 9 -28 0 -29 -2 -28 -44z"/>
<path d="M3253 1155 c0 -37 4 -45 19 -45 18 0 25 24 9 34 -4 3 -6 17 -3 31 3
17 0 25 -10 25 -11 0 -15 -12 -15 -45z"/>
<path d="M3320 1179 c-6 -11 -10 -30 -8 -42 2 -18 11 -23 41 -25 21 -2 37 1
37 7 0 6 -11 11 -25 11 -14 0 -25 5 -25 10 0 6 14 10 30 10 33 0 38 11 14 34
-22 22 -51 20 -64 -5z m40 -9 c0 -5 -4 -10 -10 -10 -5 0 -10 5 -10 10 0 6 5
10 10 10 6 0 10 -4 10 -10z"/>
<path d="M3685 1154 c0 -39 3 -44 23 -44 19 0 21 4 16 24 -7 31 4 55 17 35 5
-8 9 -24 9 -36 0 -16 6 -23 19 -23 18 0 19 3 7 43 -11 40 -14 42 -51 44 l-40
1 0 -44z"/>
<path d="M3882 1188 c-28 -28 -7 -78 33 -78 27 0 45 18 45 45 0 27 -18 45 -45
45 -12 0 -26 -5 -33 -12z m48 -39 c0 -10 -7 -19 -15 -19 -15 0 -21 31 -9 43
11 10 24 -3 24 -24z"/>
<path d="M3980 1154 c0 -37 3 -44 20 -44 16 0 19 5 15 23 -4 15 -1 28 9 36 24
20 19 28 -14 29 -29 1 -30 -1 -30 -44z"/>
<path d="M4055 1153 c0 -38 3 -43 22 -43 20 0 22 4 17 30 -4 19 -2 30 5 30 6
0 11 -13 11 -30 0 -24 4 -30 21 -30 18 0 20 4 14 29 -3 17 -2 32 4 36 7 4 11
-7 11 -29 0 -29 4 -36 20 -36 16 0 20 7 20 33 0 48 -9 54 -80 54 l-65 0 0 -44z"/>
<path d="M4230 1190 c0 -5 9 -10 20 -10 27 0 25 -18 -2 -22 -15 -2 -23 -10
-23 -23 0 -16 8 -21 43 -23 39 -3 42 -2 42 23 0 43 -17 65 -50 65 -17 0 -30
-4 -30 -10z m40 -50 c0 -5 -4 -10 -10 -10 -5 0 -10 5 -10 10 0 6 5 10 10 10 6
0 10 -4 10 -10z"/>
<path d="M4404 1155 c1 -35 5 -45 18 -45 23 0 21 83 -3 88 -13 2 -16 -6 -15
-43z"/>
<path d="M4475 1176 c-13 -19 -14 -29 -5 -45 16 -32 30 -25 30 14 0 19 5 35
10 35 17 0 23 -29 9 -46 -10 -12 -10 -17 -1 -23 7 -4 10 -15 6 -24 -4 -13 -1
-17 15 -17 19 0 21 6 21 49 0 27 3 56 6 65 5 13 -2 16 -35 16 -32 0 -44 -5
-56 -24z"/>
<path d="M4590 1173 c0 -32 17 -63 35 -63 17 0 20 16 5 25 -5 3 -10 19 -10 34
0 18 -5 28 -15 28 -9 0 -15 -10 -15 -24z"/>
<path d="M4646 1178 c4 -13 7 -32 8 -43 2 -29 36 -33 36 -3 0 43 -12 68 -32
68 -16 0 -18 -4 -12 -22z"/>
<path d="M4712 1180 c-16 -26 -15 -38 2 -56 17 -16 66 -19 66 -4 0 6 -9 10
-20 10 -11 0 -20 5 -20 10 0 6 11 10 25 10 30 0 32 11 7 33 -25 22 -44 21 -60
-3z m48 -10 c0 -5 -4 -10 -10 -10 -5 0 -10 5 -10 10 0 6 5 10 10 10 6 0 10 -4
10 -10z"/>
<path d="M5160 1154 l0 -44 45 0 c45 0 45 0 45 36 0 22 4 33 11 29 5 -4 9 -19
7 -33 -2 -21 2 -28 19 -30 21 -3 22 0 17 30 -3 18 -7 38 -9 44 -2 7 -29 11
-69 11 l-66 0 0 -43z m47 -21 c-4 -17 -4 -17 -12 0 -4 9 -4 25 0 35 8 16 8 16
12 0 3 -10 3 -26 0 -35z"/>
<path d="M5330 1190 c0 -5 9 -10 20 -10 27 0 25 -18 -2 -22 -15 -2 -23 -10
-23 -23 0 -17 8 -20 48 -23 43 -3 48 -1 44 15 -3 10 -8 30 -11 46 -6 23 -11
27 -41 27 -19 0 -35 -4 -35 -10z m40 -50 c0 -5 -5 -10 -11 -10 -5 0 -7 5 -4
10 3 6 8 10 11 10 2 0 4 -4 4 -10z"/>
<path d="M5440 1153 c0 -36 3 -43 20 -43 16 0 19 5 15 23 -4 15 -1 28 9 36 24
20 19 28 -14 28 -29 0 -30 -2 -30 -44z"/>
<path d="M5585 1135 c0 -60 2 -65 20 -63 13 2 19 9 17 21 -2 12 4 17 23 17 17
0 29 8 37 25 16 35 -12 65 -61 65 l-36 0 0 -65z m65 14 c0 -10 -7 -19 -15 -19
-15 0 -21 31 -9 43 11 10 24 -3 24 -24z"/>
<path d="M5832 1188 c-30 -30 -3 -83 39 -76 32 5 45 31 31 62 -13 28 -49 35
-70 14z m48 -33 c0 -18 -5 -25 -19 -25 -14 0 -17 6 -13 25 2 14 11 25 18 25 8
0 14 -10 14 -25z"/>
<path d="M5930 1154 c0 -37 3 -44 19 -44 14 0 19 7 17 28 -2 39 18 43 22 4 4
-37 25 -39 30 -4 6 37 -14 60 -53 60 -35 0 -35 0 -35 -44z"/>
<path d="M6050 1181 c-10 -21 -4 -51 14 -63 17 -12 56 -9 56 3 0 6 -9 9 -20 6
-13 -3 -20 0 -20 9 0 8 10 14 25 14 26 0 30 6 16 29 -7 11 -11 10 -19 -5 -6
-11 -14 -15 -19 -10 -4 5 -2 11 5 13 19 7 14 23 -8 23 -10 0 -24 -9 -30 -19z"/>
</g>
</svg>
